<?xml version="1.0" encoding="UTF-8" standalone="no"?>
<svg width="350" height="90" xmlns="http://www.w3.org/2000/svg">
  <defs>
    <filter id="c" x="-.022" y="-.216" width="1.044" height="1.431" color-interpolation-filters="sRGB">
      <feFlood flood-opacity=".2" flood-color="#000" result="flood"/>
      <feComposite in="flood" in2="SourceGraphic" operator="in" result="composite1"/>
      <feGaussianBlur in="composite1" stdDeviation="2" result="blur"/>
      <feOffset result="offset"/>
      <feComposite in="SourceGraphic" in2="offset" result="composite2"/>
    </filter>
    <filter id="b" x="-.032" y="-.364" width="1.064" height="1.727" color-interpolation-filters="sRGB">
      <feFlood flood-opacity=".2" flood-color="#000" result="flood"/>
      <feComposite in="flood" in2="SourceGraphic" operator="in" result="composite1"/>
      <feGaussianBlur in="composite1" stdDeviation="2" result="blur"/>
      <feOffset result="offset"/>
      <feComposite in="SourceGraphic" in2="offset" result="composite2"/>
    </filter>
    <linearGradient id="a">
      <stop offset="0"/>
      <stop offset="1" stop-opacity="0"/>
    </linearGradient>
  </defs>
  <g style="mix-blend-mode:normal">
    <path style="mix-blend-mode:normal" d="M10 40h330v40H10Z" fill="#00f" fill-opacity=".012" fill-rule="evenodd" stroke="#eeda96" stroke-width="6.238"/>
    <path fill="#eeda96" d="M19 49h9v22h-9z"/>
    <path fill="#ebd99c" d="M43 49h-9v22h9z"/>
    <path fill="#e9d9a3" d="M49 49h9v22h-9z"/>
    <path fill="#e6d8aa" d="M64 49h9v22h-9z"/>
    <path fill="#e4d8b1" d="M79 49h9v22h-9z"/>
    <text xml:space="preserve" style="line-height:1.25;" x="121.21" y="90.83" transform="matrix(1.04844 0 0 1.04844 -29.626 -29.626)" font-weight="400" font-size="17.333" font-family="'Comfortaa', Comfortaa, Arial, Helvetica, sans-serif" letter-spacing="2.88" stroke-width=".05" filter="url(#b)"><tspan x="121.21" y="90.83" fill="#fff">перезагрузка</tspan></text>
    <text xml:space="preserve" style="line-height:1.25;" x="85.304" y="59.47" transform="matrix(1.04844 0 0 1.04844 -30.627 -29.626)" font-weight="400" font-size="38.667" font-family="'Comfortaa', Comfortaa, Arial, Helvetica, sans-serif" letter-spacing="6.03" filter="url(#c)"><tspan x="85.304" y="59.47" fill="#fff">экология</tspan></text>
  </g>
</svg>
