<?xml version="1.0" encoding="UTF-8" standalone="no"?>
<svg width="256" height="256" xmlns="http://www.w3.org/2000/svg">
  <g fill="#fff" stroke="#ccc">
    <path d="M236.524 98.212A27.848 27.848 0 0 0 252 73.168V52c0-14.864-11.644-27.064-26.292-27.948l-9.508-9.508A35.756 35.756 0 0 0 190.748 4h-18.432A28.344 28.344 0 0 0 144 32.316c0 8.648 3.872 16.704 10.628 22.108l6.804 5.444C160.028 71.536 160 79.532 160 80v4h8v2.788a21.174 21.174 0 0 0 9.444 17.648A21.156 21.156 0 0 0 189.212 108h1.084c.572 0 1.136-.124 1.704-.168v14.488l-7.432 1.488a8.016 8.016 0 0 0-4.5 2.64l-4.804 5.604a79.852 79.852 0 0 0-12.116 19.148L140 174.344V159.26A55.252 55.252 0 0 0 84.74 104H84v-4.136a24.224 24.224 0 0 0 20.844-15.208A43.833 43.833 0 0 0 108 68.28V52c0-2.828-.604-5.508-1.668-7.948A30.96 30.96 0 0 0 116 21.656a17.528 17.528 0 0 0-5.172-12.484A17.528 17.528 0 0 0 98.344 4h-32.2C55.956 4 46.36 7.988 38.864 15.484 32.06 22.284 28 32.944 28 44c0 14.324 8.416 22.94 12.1 26.032a23.132 23.132 0 0 0 6.728 14.456L48 85.656v18.392c-9.04.236-17.688 3.1-25.068 8.372A45.288 45.288 0 0 0 4 149.204V184c0 13.636 6.236 25.84 16 33.916V252h96v-24h10.748a35.76 35.76 0 0 0 25.456-10.544l3.8-3.8V252h96V151.416a35.54 35.54 0 0 0-3.74-15.836 35.688 35.688 0 0 0-15.84-15.84L228 117.528v-15.056zm-76.9-50.036A20.22 20.22 0 0 1 152 32.316 20.336 20.336 0 0 1 172.316 12h18.432c7.48 0 14.508 2.912 19.8 8.2L222.344 32H224c11.028 0 20 8.972 20 20v21.168a19.888 19.888 0 0 1-11.056 17.888l-7.984 3.992a21.74 21.74 0 0 1-4.068-8.228 31.624 31.624 0 0 1-.792-4.68c3.016-2.18 7.9-6.828 7.9-14.14 0-8.824-7.176-16-16-16h-.544c-.788-2.772-2.424-5.264-4.896-7.444C202.132 40.656 194.62 36 184 36c-8.84 0-17.428 4.244-17.788 4.42l-1.752.876-.384 1.916c-.512 2.56-.956 5.048-1.348 7.448zM193.528 136h-5.544l.012-4.72 8.772-1.752zm-4.388 45.816-5.016-9.028L187.552 144h5.24l5.716 25.72a75.528 75.528 0 0 1-9.368 12.096zm15.088-23.22-4.016-18.076 6.492-12.98 7.408-1.48-6.92 24.216c-.816 2.852-1.84 5.612-2.964 8.32zM200 106.48l12.784-2.556-1.572-7.844-18.328 3.668a13.324 13.324 0 0 1-2.588.252h-1.084a13.164 13.164 0 0 1-7.328-2.22A13.18 13.18 0 0 1 176 86.788V76h-7.884c.248-5.592 1.012-16.5 3.412-29.188C174.096 45.76 179.124 44 184 44c8.124 0 13.876 3.568 17.272 6.56C203.16 52.224 204 53.9 204 56v4h8c4.412 0 8 3.588 8 8 0 5.368-5.752 8.404-5.788 8.42L212 77.528V80c0 2.732.376 5.664 1.12 8.712a29.908 29.908 0 0 0 6.88 12.88v15.128l-20 4zm-20 32.484v.8l-2.512 21.084-5.404-9.728A71.664 71.664 0 0 1 180 138.964zm-48 20.296v23.084l-2.14 2.14a12.092 12.092 0 0 1-8.492 3.516H116v-24h-8v24H76v-11.208l25.424-61.748A47.268 47.268 0 0 1 132 159.26zm-16 49.172a11.464 11.464 0 0 1-3.388 8.172 11.464 11.464 0 0 1-8.104 3.396H100v.004h-8V196h12.024c6.592.012 11.964 5.416 11.976 12.432zM77.528 112l-4 8h-7.056l-4-8zm5.128 27.608-2.496-14.984 6.276-12.548c2.44.088 4.86.336 7.232.792zM53.528 112l6.312 12.624-1.988 11.92-11.448-24.328c.936-.072 1.856-.216 2.8-.216zm13.86 16h5.22l4.272 25.632-5.128 12.456-7.912-16.816zM100 68.28a35.868 35.868 0 0 1-2.584 13.404 16.332 16.332 0 0 1-15.24 10.32c-3.252 0-6.4-.952-9.104-2.756l-6.856-4.572-4.436 6.656 6.856 4.572a24.372 24.372 0 0 0 7.36 3.256V104h-20V82.344l-3.516-3.516A15.228 15.228 0 0 1 48 68c0-2.204 1.796-4 4-4h4V52c0-6.616 5.384-12 12-12h20c6.616 0 12 5.384 12 12zm-57.712-7.312A25.764 25.764 0 0 1 36 44c0-8.98 3.184-17.528 8.776-23.12A30.052 30.052 0 0 1 66.144 12h32.2a9.73 9.73 0 0 1 6.828 2.828A9.73 9.73 0 0 1 108 21.656a22.892 22.892 0 0 1-6.392 15.776A19.864 19.864 0 0 0 88 32H68c-11.028 0-20 8.972-20 20v4.684a12.044 12.044 0 0 0-5.712 4.284zM12 184v-34.796a37.276 37.276 0 0 1 15.58-30.276 37.148 37.148 0 0 1 10.668-5.26L68 176.896V188H44v-24h-8v24a8 8 0 0 0 7.976 8H84v24.004L48 220c-19.848 0-36-16.148-36-36zm96 60H28v-20.856A43.664 43.664 0 0 0 48 228l56.444.004h.004l.06-.004H108Zm38.544-32.2a27.816 27.816 0 0 1-19.8 8.2h-6.624a19.756 19.756 0 0 0 3.88-11.956A19.932 19.932 0 0 0 119.872 196h1.496a20.16 20.16 0 0 0 14.152-5.86l22.204-22.204A79.504 79.504 0 0 0 156 184.112v18.232zM164 184.112c0-8.148 1.428-16.156 4.076-23.736l15.052 27.092c-.548.464-1.064.956-1.628 1.408l-1.5 1.204V244h-16zm64.844-57.216a27.6 27.6 0 0 1 12.26 12.26 27.505 27.505 0 0 1 2.896 12.26V244h-24v-64h-8v64h-24v-50.104a83.792 83.792 0 0 0 26.884-41.42l8.052-28.18.504-.1z"/>
    <circle cx="146.002" cy="152" r="4"/>
    <circle cx="146.002" cy="148" r="4"/>
  </g>
</svg>
