<?xml version="1.0" encoding="UTF-8" standalone="no"?>
<svg xml:space="preserve" width="64" height="64" xmlns="http://www.w3.org/2000/svg">
  <g fill="#fff" stroke="#000">
    <path d="M19.99 20.45c.215.99.545 1.631.93 2.03.916 6.378 6.641 11.814 11.24 11.587 5.849-.287 9.995-6.591 10.925-11.586.385-.398.756-1.247.979-2.245.248-1.145.516-2.873-.173-3.787a9.057 9.057 0 0 0-.349-.33c.658-2.373 2.103-6.607-1.495-10.414-1.95-2.062-4.658-3.098-7.105-3.916-7.225-2.414-12.326.971-14.68 6.6-.17.4-1.268 2.929.062 7.73a1.364 1.364 0 0 0-.344.33c-.691.912-.242 2.854.01 4Z"/>
    <path d="M57.356 55.526c-.201-4.39-.45-11.347-4.285-17.038 0 0-1.093-1.49-3.687-2.481 0 0-5.631-1.716-8.225-3.57l-1.184.811.132 7.699-7.11 18.98a1.062 1.062 0 0 1-1.99 0l-7.108-18.98s.131-7.675.129-7.699c.017.065-1.187-.81-1.187-.81-2.588 1.853-8.222 3.569-8.222 3.569-2.594.99-3.687 2.48-3.687 2.48C7.1 44.18 6.846 51.137 6.645 55.527c-.139 3.033.498 4.165 1.297 4.488 9.918 3.98 38.193 3.98 48.114 0 .804-.32 1.436-1.455 1.3-4.488z"/>
    <path d="m32.255 36.519-.32.007c-1.034 0-2.077-.201-3.101-.555l2.818 4.313-2.528 2.44 2.602 15.807a.282.282 0 0 0 .555 0l2.603-15.807-2.53-2.44 2.777-4.248a11.91 11.91 0 0 1-2.876.483z"/>
  </g>
</svg>
